<svg width="50" height="44" viewBox="0 0 50 44" fill="none" xmlns="http://www.w3.org/2000/svg">
<path d="M25.2061 18.8671L0.881653 24.4195L17.5386 33.6733L33.9312 25.7414L42.9207 30.2362L48.7374 24.6839L43.7139 17.2808L38.1615 18.8671L33.9312 23.3619L25.2061 18.8671Z" fill="white"/>
<path fill-rule="evenodd" clip-rule="evenodd" d="M10.1356 2.11941C10.1356 0.234994 12.4139 -0.708723 13.7464 0.62376L19.5631 6.44048H33.2288L39.0455 0.62376C40.378 -0.708721 42.6563 0.234993 42.6563 2.11941V14.0223L49.5822 23.3363C50.1975 24.1639 50.1264 25.3145 49.4138 26.06L33.4142 42.7981C32.7448 43.4983 31.6852 43.6544 30.8424 43.1768L1.07256 26.3072C-0.162763 25.6072 -0.371207 23.913 0.657563 22.9344L10.1356 13.9187V2.11941ZM18.0675 7.93613L12.2507 2.11941V13.9187C12.2507 14.4981 12.0131 15.052 11.5934 15.4513L2.11537 24.467L31.8852 41.3365L47.8848 24.5984L40.959 15.2844C40.6877 14.9195 40.5411 14.4769 40.5411 14.0223V2.11941L34.7244 7.93613C34.3278 8.3328 33.7898 8.55565 33.2288 8.55565H19.5631C19.0021 8.55565 18.4641 8.3328 18.0675 7.93613Z" fill="white"/>
<path d="M37.285 29.4429H33.2571C32.8509 29.4429 32.5964 29.882 32.7983 30.2345L34.8954 33.8962C35.1026 34.258 35.6276 34.2489 35.822 33.8801L37.7527 30.2184C37.9384 29.8662 37.6831 29.4429 37.285 29.4429Z" fill="white"/>
</svg>
